<mxfile host="Electron" modified="2023-04-03T19:28:39.043Z" agent="Mozilla/5.0 (Windows NT 10.0; Win64; x64) AppleWebKit/537.36 (KHTML, like Gecko) draw.io/21.1.2 Chrome/106.0.5249.199 Electron/21.4.3 Safari/537.36" etag="AwjLnEms5bVV25gS-IMc" version="21.1.2" type="device">
  <diagram name="Page-1" id="ehjTH2umZKII__cQuuAv">
    <mxGraphModel dx="1292" dy="1148" grid="1" gridSize="10" guides="1" tooltips="1" connect="1" arrows="1" fold="1" page="1" pageScale="1" pageWidth="850" pageHeight="1100" math="0" shadow="0">
      <root>
        <mxCell id="0" />
        <mxCell id="1" parent="0" />
        <mxCell id="y_ZNyu71K3FGDNvZUCl0-4" value="Entry page" style="rounded=1;whiteSpace=wrap;html=1;fillColor=#d5e8d4;strokeColor=#82b366;" vertex="1" parent="1">
          <mxGeometry x="420" y="210" width="120" height="60" as="geometry" />
        </mxCell>
        <mxCell id="y_ZNyu71K3FGDNvZUCl0-18" value="" style="endArrow=classic;html=1;rounded=0;exitX=0;exitY=0.5;exitDx=0;exitDy=0;" edge="1" parent="1" source="y_ZNyu71K3FGDNvZUCl0-4">
          <mxGeometry width="50" height="50" relative="1" as="geometry">
            <mxPoint x="360" y="585" as="sourcePoint" />
            <mxPoint x="380" y="240" as="targetPoint" />
          </mxGeometry>
        </mxCell>
        <mxCell id="y_ZNyu71K3FGDNvZUCl0-35" value="" style="endArrow=classic;html=1;rounded=0;entryX=1;entryY=0.5;entryDx=0;entryDy=0;" edge="1" parent="1" target="y_ZNyu71K3FGDNvZUCl0-43">
          <mxGeometry width="50" height="50" relative="1" as="geometry">
            <mxPoint x="320" y="880" as="sourcePoint" />
            <mxPoint x="320" y="800" as="targetPoint" />
          </mxGeometry>
        </mxCell>
        <mxCell id="y_ZNyu71K3FGDNvZUCl0-40" value="" style="endArrow=classic;html=1;rounded=0;" edge="1" parent="1">
          <mxGeometry width="50" height="50" relative="1" as="geometry">
            <mxPoint x="80" y="320" as="sourcePoint" />
            <mxPoint x="290" y="320" as="targetPoint" />
          </mxGeometry>
        </mxCell>
        <mxCell id="y_ZNyu71K3FGDNvZUCl0-41" value="" style="endArrow=classic;html=1;rounded=0;entryX=0;entryY=0.5;entryDx=0;entryDy=0;" edge="1" parent="1" target="y_ZNyu71K3FGDNvZUCl0-34">
          <mxGeometry width="50" height="50" relative="1" as="geometry">
            <mxPoint x="80" y="480" as="sourcePoint" />
            <mxPoint x="270" y="410" as="targetPoint" />
          </mxGeometry>
        </mxCell>
        <mxCell id="y_ZNyu71K3FGDNvZUCl0-45" value="" style="endArrow=none;html=1;rounded=0;entryX=0.5;entryY=1;entryDx=0;entryDy=0;" edge="1" parent="1" target="y_ZNyu71K3FGDNvZUCl0-2">
          <mxGeometry width="50" height="50" relative="1" as="geometry">
            <mxPoint x="320" y="880" as="sourcePoint" />
            <mxPoint x="360" y="630" as="targetPoint" />
            <Array as="points" />
          </mxGeometry>
        </mxCell>
        <mxCell id="y_ZNyu71K3FGDNvZUCl0-46" value="" style="endArrow=classic;html=1;rounded=0;entryX=1;entryY=0.5;entryDx=0;entryDy=0;" edge="1" parent="1" target="y_ZNyu71K3FGDNvZUCl0-34">
          <mxGeometry width="50" height="50" relative="1" as="geometry">
            <mxPoint x="320" y="480" as="sourcePoint" />
            <mxPoint x="275" y="650" as="targetPoint" />
          </mxGeometry>
        </mxCell>
        <mxCell id="y_ZNyu71K3FGDNvZUCl0-47" value="" style="endArrow=classic;html=1;rounded=0;entryX=1;entryY=0.5;entryDx=0;entryDy=0;" edge="1" parent="1" target="y_ZNyu71K3FGDNvZUCl0-42">
          <mxGeometry width="50" height="50" relative="1" as="geometry">
            <mxPoint x="320" y="560" as="sourcePoint" />
            <mxPoint x="265" y="560" as="targetPoint" />
          </mxGeometry>
        </mxCell>
        <mxCell id="y_ZNyu71K3FGDNvZUCl0-53" value="Search customers" style="rounded=1;whiteSpace=wrap;html=1;" vertex="1" parent="1">
          <mxGeometry x="420" y="410" width="120" height="60" as="geometry" />
        </mxCell>
        <mxCell id="y_ZNyu71K3FGDNvZUCl0-55" value="" style="endArrow=classic;html=1;rounded=0;entryX=1;entryY=0.5;entryDx=0;entryDy=0;" edge="1" parent="1" target="y_ZNyu71K3FGDNvZUCl0-53">
          <mxGeometry width="50" height="50" relative="1" as="geometry">
            <mxPoint x="600" y="440" as="sourcePoint" />
            <mxPoint x="345" y="650" as="targetPoint" />
          </mxGeometry>
        </mxCell>
        <mxCell id="y_ZNyu71K3FGDNvZUCl0-56" value="View customer" style="rounded=1;whiteSpace=wrap;html=1;" vertex="1" parent="1">
          <mxGeometry x="420" y="490" width="120" height="60" as="geometry" />
        </mxCell>
        <mxCell id="y_ZNyu71K3FGDNvZUCl0-57" value="" style="endArrow=classic;html=1;rounded=0;entryX=0.5;entryY=0;entryDx=0;entryDy=0;exitX=0.5;exitY=1;exitDx=0;exitDy=0;" edge="1" parent="1" source="y_ZNyu71K3FGDNvZUCl0-53" target="y_ZNyu71K3FGDNvZUCl0-56">
          <mxGeometry width="50" height="50" relative="1" as="geometry">
            <mxPoint x="620" y="710" as="sourcePoint" />
            <mxPoint x="650" y="620" as="targetPoint" />
          </mxGeometry>
        </mxCell>
        <mxCell id="y_ZNyu71K3FGDNvZUCl0-71" value="View products" style="rounded=1;whiteSpace=wrap;html=1;" vertex="1" parent="1">
          <mxGeometry x="260" y="130" width="120" height="60" as="geometry" />
        </mxCell>
        <mxCell id="y_ZNyu71K3FGDNvZUCl0-34" value="View/edit account" style="rounded=1;whiteSpace=wrap;html=1;" vertex="1" parent="1">
          <mxGeometry x="140" y="450" width="120" height="60" as="geometry" />
        </mxCell>
        <mxCell id="y_ZNyu71K3FGDNvZUCl0-42" value="View&amp;nbsp;orders" style="rounded=1;whiteSpace=wrap;html=1;" vertex="1" parent="1">
          <mxGeometry x="140" y="530" width="120" height="60" as="geometry" />
        </mxCell>
        <mxCell id="y_ZNyu71K3FGDNvZUCl0-43" value="View&amp;nbsp;statements" style="rounded=1;whiteSpace=wrap;html=1;" vertex="1" parent="1">
          <mxGeometry x="140" y="850" width="120" height="60" as="geometry" />
        </mxCell>
        <mxCell id="y_ZNyu71K3FGDNvZUCl0-74" value="Create order" style="rounded=1;whiteSpace=wrap;html=1;" vertex="1" parent="1">
          <mxGeometry x="140" y="610" width="120" height="60" as="geometry" />
        </mxCell>
        <mxCell id="y_ZNyu71K3FGDNvZUCl0-76" value="" style="endArrow=classic;html=1;rounded=0;entryX=1;entryY=0.5;entryDx=0;entryDy=0;" edge="1" parent="1" target="y_ZNyu71K3FGDNvZUCl0-74">
          <mxGeometry width="50" height="50" relative="1" as="geometry">
            <mxPoint x="320" y="640" as="sourcePoint" />
            <mxPoint x="285" y="740" as="targetPoint" />
          </mxGeometry>
        </mxCell>
        <mxCell id="y_ZNyu71K3FGDNvZUCl0-77" value="" style="endArrow=classic;html=1;rounded=0;entryX=0;entryY=0.5;entryDx=0;entryDy=0;" edge="1" parent="1" target="y_ZNyu71K3FGDNvZUCl0-74">
          <mxGeometry width="50" height="50" relative="1" as="geometry">
            <mxPoint x="80" y="640" as="sourcePoint" />
            <mxPoint x="295" y="750" as="targetPoint" />
          </mxGeometry>
        </mxCell>
        <mxCell id="y_ZNyu71K3FGDNvZUCl0-79" value="" style="endArrow=classic;html=1;rounded=0;entryX=0.5;entryY=0;entryDx=0;entryDy=0;exitX=0.5;exitY=1;exitDx=0;exitDy=0;" edge="1" parent="1" source="y_ZNyu71K3FGDNvZUCl0-42" target="y_ZNyu71K3FGDNvZUCl0-74">
          <mxGeometry width="50" height="50" relative="1" as="geometry">
            <mxPoint x="340" y="580" as="sourcePoint" />
            <mxPoint x="280" y="580" as="targetPoint" />
          </mxGeometry>
        </mxCell>
        <mxCell id="y_ZNyu71K3FGDNvZUCl0-80" value="View services" style="rounded=1;whiteSpace=wrap;html=1;" vertex="1" parent="1">
          <mxGeometry x="420" y="130" width="120" height="60" as="geometry" />
        </mxCell>
        <mxCell id="y_ZNyu71K3FGDNvZUCl0-81" value="" style="endArrow=classic;html=1;rounded=0;entryX=1;entryY=0.5;entryDx=0;entryDy=0;" edge="1" parent="1" target="y_ZNyu71K3FGDNvZUCl0-82">
          <mxGeometry width="50" height="50" relative="1" as="geometry">
            <mxPoint x="320" y="720" as="sourcePoint" />
            <mxPoint x="320" y="640" as="targetPoint" />
          </mxGeometry>
        </mxCell>
        <mxCell id="y_ZNyu71K3FGDNvZUCl0-82" value="View jobs" style="rounded=1;whiteSpace=wrap;html=1;" vertex="1" parent="1">
          <mxGeometry x="140" y="690" width="120" height="60" as="geometry" />
        </mxCell>
        <mxCell id="y_ZNyu71K3FGDNvZUCl0-83" value="" style="endArrow=classic;html=1;rounded=0;entryX=1;entryY=0.5;entryDx=0;entryDy=0;" edge="1" parent="1" target="y_ZNyu71K3FGDNvZUCl0-84">
          <mxGeometry width="50" height="50" relative="1" as="geometry">
            <mxPoint x="320" y="800" as="sourcePoint" />
            <mxPoint x="320" y="720" as="targetPoint" />
          </mxGeometry>
        </mxCell>
        <mxCell id="y_ZNyu71K3FGDNvZUCl0-84" value="Create job" style="rounded=1;whiteSpace=wrap;html=1;" vertex="1" parent="1">
          <mxGeometry x="140" y="770" width="120" height="60" as="geometry" />
        </mxCell>
        <mxCell id="y_ZNyu71K3FGDNvZUCl0-85" value="" style="endArrow=classic;html=1;rounded=0;entryX=0.5;entryY=0;entryDx=0;entryDy=0;exitX=0.5;exitY=1;exitDx=0;exitDy=0;" edge="1" parent="1" source="y_ZNyu71K3FGDNvZUCl0-82" target="y_ZNyu71K3FGDNvZUCl0-84">
          <mxGeometry width="50" height="50" relative="1" as="geometry">
            <mxPoint x="330" y="810" as="sourcePoint" />
            <mxPoint x="270" y="810" as="targetPoint" />
          </mxGeometry>
        </mxCell>
        <mxCell id="y_ZNyu71K3FGDNvZUCl0-89" value="" style="endArrow=none;html=1;rounded=0;entryX=0.5;entryY=0;entryDx=0;entryDy=0;" edge="1" parent="1" target="y_ZNyu71K3FGDNvZUCl0-104">
          <mxGeometry width="50" height="50" relative="1" as="geometry">
            <mxPoint x="160" y="80" as="sourcePoint" />
            <mxPoint x="640" y="80" as="targetPoint" />
            <Array as="points">
              <mxPoint x="640" y="80" />
            </Array>
          </mxGeometry>
        </mxCell>
        <mxCell id="y_ZNyu71K3FGDNvZUCl0-90" value="FAQ" style="rounded=1;whiteSpace=wrap;html=1;" vertex="1" parent="1">
          <mxGeometry x="100" y="130" width="120" height="60" as="geometry" />
        </mxCell>
        <mxCell id="y_ZNyu71K3FGDNvZUCl0-92" value="Warehouses" style="rounded=1;whiteSpace=wrap;html=1;" vertex="1" parent="1">
          <mxGeometry x="420" y="570" width="120" height="60" as="geometry" />
        </mxCell>
        <mxCell id="y_ZNyu71K3FGDNvZUCl0-93" value="Warehouse" style="rounded=1;whiteSpace=wrap;html=1;" vertex="1" parent="1">
          <mxGeometry x="420" y="650" width="120" height="60" as="geometry" />
        </mxCell>
        <mxCell id="y_ZNyu71K3FGDNvZUCl0-94" value="Create restock order" style="rounded=1;whiteSpace=wrap;html=1;" vertex="1" parent="1">
          <mxGeometry x="420" y="770" width="120" height="60" as="geometry" />
        </mxCell>
        <mxCell id="y_ZNyu71K3FGDNvZUCl0-95" value="" style="endArrow=classic;html=1;rounded=0;entryX=0.5;entryY=0;entryDx=0;entryDy=0;exitX=0.5;exitY=1;exitDx=0;exitDy=0;" edge="1" parent="1" source="y_ZNyu71K3FGDNvZUCl0-92" target="y_ZNyu71K3FGDNvZUCl0-93">
          <mxGeometry width="50" height="50" relative="1" as="geometry">
            <mxPoint x="920" y="750" as="sourcePoint" />
            <mxPoint x="960" y="890" as="targetPoint" />
          </mxGeometry>
        </mxCell>
        <mxCell id="y_ZNyu71K3FGDNvZUCl0-1" value="Signin/signup page" style="rounded=1;whiteSpace=wrap;html=1;" vertex="1" parent="1">
          <mxGeometry x="260" y="210" width="120" height="60" as="geometry" />
        </mxCell>
        <mxCell id="y_ZNyu71K3FGDNvZUCl0-2" value="Customer home" style="rounded=1;whiteSpace=wrap;html=1;" vertex="1" parent="1">
          <mxGeometry x="260" y="370" width="120" height="60" as="geometry" />
        </mxCell>
        <mxCell id="y_ZNyu71K3FGDNvZUCl0-3" value="Employee home" style="rounded=1;whiteSpace=wrap;html=1;" vertex="1" parent="1">
          <mxGeometry x="420" y="290" width="120" height="60" as="geometry" />
        </mxCell>
        <mxCell id="y_ZNyu71K3FGDNvZUCl0-13" value="" style="endArrow=classic;html=1;rounded=0;entryX=0.25;entryY=0;entryDx=0;entryDy=0;" edge="1" parent="1" target="y_ZNyu71K3FGDNvZUCl0-2">
          <mxGeometry relative="1" as="geometry">
            <mxPoint x="290" y="320" as="sourcePoint" />
            <mxPoint x="300" y="500" as="targetPoint" />
          </mxGeometry>
        </mxCell>
        <mxCell id="y_ZNyu71K3FGDNvZUCl0-14" value="If not employee" style="edgeLabel;resizable=0;html=1;align=center;verticalAlign=middle;" connectable="0" vertex="1" parent="y_ZNyu71K3FGDNvZUCl0-13">
          <mxGeometry relative="1" as="geometry" />
        </mxCell>
        <mxCell id="y_ZNyu71K3FGDNvZUCl0-17" value="" style="endArrow=classic;html=1;rounded=0;exitX=0.25;exitY=1;exitDx=0;exitDy=0;entryX=1;entryY=0.5;entryDx=0;entryDy=0;" edge="1" parent="1" source="y_ZNyu71K3FGDNvZUCl0-3" target="y_ZNyu71K3FGDNvZUCl0-2">
          <mxGeometry width="50" height="50" relative="1" as="geometry">
            <mxPoint x="430" y="620" as="sourcePoint" />
            <mxPoint x="480" y="570" as="targetPoint" />
          </mxGeometry>
        </mxCell>
        <mxCell id="y_ZNyu71K3FGDNvZUCl0-10" value="" style="endArrow=classic;html=1;rounded=0;entryX=0;entryY=0.5;entryDx=0;entryDy=0;" edge="1" parent="1" target="y_ZNyu71K3FGDNvZUCl0-3">
          <mxGeometry relative="1" as="geometry">
            <mxPoint x="290" y="320" as="sourcePoint" />
            <mxPoint x="920" y="850" as="targetPoint" />
          </mxGeometry>
        </mxCell>
        <mxCell id="y_ZNyu71K3FGDNvZUCl0-11" value="If employee" style="edgeLabel;resizable=0;html=1;align=center;verticalAlign=middle;" connectable="0" vertex="1" parent="y_ZNyu71K3FGDNvZUCl0-10">
          <mxGeometry relative="1" as="geometry" />
        </mxCell>
        <mxCell id="y_ZNyu71K3FGDNvZUCl0-15" value="" style="endArrow=classic;html=1;rounded=0;entryX=0;entryY=0.5;entryDx=0;entryDy=0;exitX=0.75;exitY=0;exitDx=0;exitDy=0;" edge="1" parent="1" source="y_ZNyu71K3FGDNvZUCl0-2" target="y_ZNyu71K3FGDNvZUCl0-3">
          <mxGeometry relative="1" as="geometry">
            <mxPoint x="470" y="490" as="sourcePoint" />
            <mxPoint x="730" y="760" as="targetPoint" />
          </mxGeometry>
        </mxCell>
        <mxCell id="y_ZNyu71K3FGDNvZUCl0-16" value="If employee" style="edgeLabel;resizable=0;html=1;align=center;verticalAlign=middle;" connectable="0" vertex="1" parent="y_ZNyu71K3FGDNvZUCl0-15">
          <mxGeometry relative="1" as="geometry" />
        </mxCell>
        <mxCell id="y_ZNyu71K3FGDNvZUCl0-26" value="All pages implicitly contain the header and footer.&amp;nbsp;&lt;br&gt;&lt;div style=&quot;&quot;&gt;&lt;span style=&quot;background-color: initial;&quot;&gt;Some pages will have multiple ways to access the same destination.&lt;/span&gt;&lt;/div&gt;" style="text;html=1;strokeColor=none;fillColor=none;align=left;verticalAlign=middle;whiteSpace=wrap;rounded=0;" vertex="1" parent="1">
          <mxGeometry x="580" y="200" width="200" height="60" as="geometry" />
        </mxCell>
        <mxCell id="y_ZNyu71K3FGDNvZUCl0-100" value="Suppliers" style="rounded=1;whiteSpace=wrap;html=1;" vertex="1" parent="1">
          <mxGeometry x="660" y="490" width="120" height="60" as="geometry" />
        </mxCell>
        <mxCell id="y_ZNyu71K3FGDNvZUCl0-101" value="Brands" style="rounded=1;whiteSpace=wrap;html=1;" vertex="1" parent="1">
          <mxGeometry x="660" y="570" width="120" height="60" as="geometry" />
        </mxCell>
        <mxCell id="y_ZNyu71K3FGDNvZUCl0-102" value="Services" style="rounded=1;whiteSpace=wrap;html=1;" vertex="1" parent="1">
          <mxGeometry x="660" y="650" width="120" height="60" as="geometry" />
        </mxCell>
        <mxCell id="y_ZNyu71K3FGDNvZUCl0-103" value="Products" style="rounded=1;whiteSpace=wrap;html=1;" vertex="1" parent="1">
          <mxGeometry x="660" y="290" width="120" height="60" as="geometry" />
        </mxCell>
        <mxCell id="y_ZNyu71K3FGDNvZUCl0-104" value="Header/footer" style="rounded=1;whiteSpace=wrap;html=1;fillColor=#d5e8d4;strokeColor=#82b366;" vertex="1" parent="1">
          <mxGeometry x="580" y="130" width="120" height="60" as="geometry" />
        </mxCell>
        <mxCell id="y_ZNyu71K3FGDNvZUCl0-105" value="" style="endArrow=classic;html=1;rounded=0;entryX=0.5;entryY=0;entryDx=0;entryDy=0;" edge="1" parent="1" target="y_ZNyu71K3FGDNvZUCl0-80">
          <mxGeometry width="50" height="50" relative="1" as="geometry">
            <mxPoint x="480" y="80" as="sourcePoint" />
            <mxPoint x="455" y="290" as="targetPoint" />
          </mxGeometry>
        </mxCell>
        <mxCell id="y_ZNyu71K3FGDNvZUCl0-108" value="" style="endArrow=classic;html=1;rounded=0;entryX=0.5;entryY=0;entryDx=0;entryDy=0;" edge="1" parent="1" target="y_ZNyu71K3FGDNvZUCl0-71">
          <mxGeometry width="50" height="50" relative="1" as="geometry">
            <mxPoint x="320" y="80" as="sourcePoint" />
            <mxPoint x="485" y="140" as="targetPoint" />
          </mxGeometry>
        </mxCell>
        <mxCell id="y_ZNyu71K3FGDNvZUCl0-109" value="" style="endArrow=classic;html=1;rounded=0;entryX=0.5;entryY=0;entryDx=0;entryDy=0;" edge="1" parent="1" target="y_ZNyu71K3FGDNvZUCl0-90">
          <mxGeometry width="50" height="50" relative="1" as="geometry">
            <mxPoint x="160" y="80" as="sourcePoint" />
            <mxPoint x="330" y="140" as="targetPoint" />
          </mxGeometry>
        </mxCell>
        <mxCell id="y_ZNyu71K3FGDNvZUCl0-111" value="" style="endArrow=classic;html=1;rounded=0;endFill=1;entryX=0;entryY=0.5;entryDx=0;entryDy=0;" edge="1" parent="1" target="y_ZNyu71K3FGDNvZUCl0-1">
          <mxGeometry relative="1" as="geometry">
            <mxPoint x="80" y="240" as="sourcePoint" />
            <mxPoint x="200" y="240" as="targetPoint" />
          </mxGeometry>
        </mxCell>
        <mxCell id="y_ZNyu71K3FGDNvZUCl0-112" value="If not signed in" style="edgeLabel;resizable=0;html=1;align=center;verticalAlign=middle;" connectable="0" vertex="1" parent="y_ZNyu71K3FGDNvZUCl0-111">
          <mxGeometry relative="1" as="geometry" />
        </mxCell>
        <mxCell id="y_ZNyu71K3FGDNvZUCl0-114" value="" style="endArrow=none;html=1;rounded=0;" edge="1" parent="1">
          <mxGeometry width="50" height="50" relative="1" as="geometry">
            <mxPoint x="160" y="80" as="sourcePoint" />
            <mxPoint x="80" y="240" as="targetPoint" />
            <Array as="points">
              <mxPoint x="80" y="80" />
            </Array>
          </mxGeometry>
        </mxCell>
        <mxCell id="y_ZNyu71K3FGDNvZUCl0-116" value="" style="endArrow=none;html=1;rounded=0;entryX=0.25;entryY=1;entryDx=0;entryDy=0;" edge="1" parent="1" target="y_ZNyu71K3FGDNvZUCl0-1">
          <mxGeometry width="50" height="50" relative="1" as="geometry">
            <mxPoint x="290" y="320" as="sourcePoint" />
            <mxPoint x="210" y="340" as="targetPoint" />
          </mxGeometry>
        </mxCell>
        <mxCell id="y_ZNyu71K3FGDNvZUCl0-118" value="" style="endArrow=none;html=1;rounded=0;endFill=0;" edge="1" parent="1">
          <mxGeometry relative="1" as="geometry">
            <mxPoint x="80" y="240" as="sourcePoint" />
            <mxPoint x="80" y="320" as="targetPoint" />
          </mxGeometry>
        </mxCell>
        <mxCell id="y_ZNyu71K3FGDNvZUCl0-119" value="If signed in" style="edgeLabel;resizable=0;html=1;align=center;verticalAlign=middle;" connectable="0" vertex="1" parent="y_ZNyu71K3FGDNvZUCl0-118">
          <mxGeometry relative="1" as="geometry" />
        </mxCell>
        <mxCell id="y_ZNyu71K3FGDNvZUCl0-121" value="" style="endArrow=none;html=1;rounded=0;" edge="1" parent="1">
          <mxGeometry width="50" height="50" relative="1" as="geometry">
            <mxPoint x="80" y="880" as="sourcePoint" />
            <mxPoint x="80" y="320" as="targetPoint" />
          </mxGeometry>
        </mxCell>
        <mxCell id="y_ZNyu71K3FGDNvZUCl0-122" value="" style="endArrow=classic;html=1;rounded=0;entryX=0;entryY=0.5;entryDx=0;entryDy=0;" edge="1" parent="1" target="y_ZNyu71K3FGDNvZUCl0-103">
          <mxGeometry width="50" height="50" relative="1" as="geometry">
            <mxPoint x="600" y="320" as="sourcePoint" />
            <mxPoint x="550" y="250" as="targetPoint" />
          </mxGeometry>
        </mxCell>
        <mxCell id="y_ZNyu71K3FGDNvZUCl0-123" value="" style="endArrow=classic;html=1;rounded=0;entryX=1;entryY=0.5;entryDx=0;entryDy=0;" edge="1" parent="1" target="y_ZNyu71K3FGDNvZUCl0-92">
          <mxGeometry width="50" height="50" relative="1" as="geometry">
            <mxPoint x="600" y="600" as="sourcePoint" />
            <mxPoint x="540" y="600" as="targetPoint" />
          </mxGeometry>
        </mxCell>
        <mxCell id="y_ZNyu71K3FGDNvZUCl0-124" value="" style="endArrow=classic;html=1;rounded=0;entryX=0;entryY=0.5;entryDx=0;entryDy=0;" edge="1" parent="1" target="y_ZNyu71K3FGDNvZUCl0-100">
          <mxGeometry width="50" height="50" relative="1" as="geometry">
            <mxPoint x="600" y="520" as="sourcePoint" />
            <mxPoint x="670" y="450" as="targetPoint" />
          </mxGeometry>
        </mxCell>
        <mxCell id="y_ZNyu71K3FGDNvZUCl0-125" value="" style="endArrow=classic;html=1;rounded=0;entryX=0;entryY=0.5;entryDx=0;entryDy=0;" edge="1" parent="1" target="y_ZNyu71K3FGDNvZUCl0-101">
          <mxGeometry width="50" height="50" relative="1" as="geometry">
            <mxPoint x="600" y="600" as="sourcePoint" />
            <mxPoint x="680" y="460" as="targetPoint" />
          </mxGeometry>
        </mxCell>
        <mxCell id="y_ZNyu71K3FGDNvZUCl0-126" value="" style="endArrow=classic;html=1;rounded=0;entryX=0;entryY=0.5;entryDx=0;entryDy=0;" edge="1" parent="1" target="y_ZNyu71K3FGDNvZUCl0-102">
          <mxGeometry width="50" height="50" relative="1" as="geometry">
            <mxPoint x="600" y="680" as="sourcePoint" />
            <mxPoint x="690" y="470" as="targetPoint" />
          </mxGeometry>
        </mxCell>
        <mxCell id="y_ZNyu71K3FGDNvZUCl0-127" value="" style="endArrow=none;html=1;rounded=0;entryX=1;entryY=0.5;entryDx=0;entryDy=0;" edge="1" parent="1" target="y_ZNyu71K3FGDNvZUCl0-3">
          <mxGeometry width="50" height="50" relative="1" as="geometry">
            <mxPoint x="600" y="680" as="sourcePoint" />
            <mxPoint x="330" y="440" as="targetPoint" />
            <Array as="points">
              <mxPoint x="600" y="320" />
            </Array>
          </mxGeometry>
        </mxCell>
        <mxCell id="y_ZNyu71K3FGDNvZUCl0-128" value="" style="endArrow=classic;html=1;rounded=0;entryX=0.5;entryY=0;entryDx=0;entryDy=0;exitX=0.5;exitY=1;exitDx=0;exitDy=0;" edge="1" parent="1" source="y_ZNyu71K3FGDNvZUCl0-93" target="y_ZNyu71K3FGDNvZUCl0-94">
          <mxGeometry relative="1" as="geometry">
            <mxPoint x="380" y="680" as="sourcePoint" />
            <mxPoint x="480" y="680" as="targetPoint" />
          </mxGeometry>
        </mxCell>
        <mxCell id="y_ZNyu71K3FGDNvZUCl0-129" value="If warehouse&lt;br&gt;manager" style="edgeLabel;resizable=0;html=1;align=center;verticalAlign=middle;" connectable="0" vertex="1" parent="y_ZNyu71K3FGDNvZUCl0-128">
          <mxGeometry relative="1" as="geometry" />
        </mxCell>
        <mxCell id="y_ZNyu71K3FGDNvZUCl0-130" value="" style="endArrow=classic;html=1;rounded=0;exitX=0;exitY=0.5;exitDx=0;exitDy=0;" edge="1" parent="1" source="y_ZNyu71K3FGDNvZUCl0-56">
          <mxGeometry relative="1" as="geometry">
            <mxPoint x="320" y="620" as="sourcePoint" />
            <mxPoint x="320" y="520" as="targetPoint" />
          </mxGeometry>
        </mxCell>
        <mxCell id="y_ZNyu71K3FGDNvZUCl0-131" value="If customer&lt;br&gt;assistant" style="edgeLabel;resizable=0;html=1;align=center;verticalAlign=middle;" connectable="0" vertex="1" parent="y_ZNyu71K3FGDNvZUCl0-130">
          <mxGeometry relative="1" as="geometry" />
        </mxCell>
        <mxCell id="y_ZNyu71K3FGDNvZUCl0-132" value="" style="endArrow=classic;html=1;rounded=0;entryX=0;entryY=0.5;entryDx=0;entryDy=0;" edge="1" parent="1" target="y_ZNyu71K3FGDNvZUCl0-84">
          <mxGeometry width="50" height="50" relative="1" as="geometry">
            <mxPoint x="80" y="800" as="sourcePoint" />
            <mxPoint x="150" y="650" as="targetPoint" />
          </mxGeometry>
        </mxCell>
        <mxCell id="y_ZNyu71K3FGDNvZUCl0-133" value="" style="endArrow=classic;html=1;rounded=0;entryX=0;entryY=0.5;entryDx=0;entryDy=0;" edge="1" parent="1" target="y_ZNyu71K3FGDNvZUCl0-43">
          <mxGeometry width="50" height="50" relative="1" as="geometry">
            <mxPoint x="80" y="880" as="sourcePoint" />
            <mxPoint x="150" y="810" as="targetPoint" />
          </mxGeometry>
        </mxCell>
        <mxCell id="y_ZNyu71K3FGDNvZUCl0-134" value="Create/edit product" style="rounded=1;whiteSpace=wrap;html=1;" vertex="1" parent="1">
          <mxGeometry x="660" y="410" width="120" height="60" as="geometry" />
        </mxCell>
        <mxCell id="y_ZNyu71K3FGDNvZUCl0-135" value="" style="endArrow=classic;html=1;rounded=0;exitX=0.5;exitY=1;exitDx=0;exitDy=0;entryX=0.5;entryY=0;entryDx=0;entryDy=0;" edge="1" parent="1" source="y_ZNyu71K3FGDNvZUCl0-103" target="y_ZNyu71K3FGDNvZUCl0-134">
          <mxGeometry relative="1" as="geometry">
            <mxPoint x="780" y="370" as="sourcePoint" />
            <mxPoint x="770" y="380" as="targetPoint" />
          </mxGeometry>
        </mxCell>
        <mxCell id="y_ZNyu71K3FGDNvZUCl0-136" value="If product&lt;br&gt;manager" style="edgeLabel;resizable=0;html=1;align=center;verticalAlign=middle;" connectable="0" vertex="1" parent="y_ZNyu71K3FGDNvZUCl0-135">
          <mxGeometry relative="1" as="geometry" />
        </mxCell>
        <mxCell id="y_ZNyu71K3FGDNvZUCl0-137" value="Create service" style="rounded=1;whiteSpace=wrap;html=1;" vertex="1" parent="1">
          <mxGeometry x="660" y="770" width="120" height="60" as="geometry" />
        </mxCell>
        <mxCell id="y_ZNyu71K3FGDNvZUCl0-138" value="" style="endArrow=classic;html=1;rounded=0;exitX=0.5;exitY=1;exitDx=0;exitDy=0;" edge="1" parent="1" source="y_ZNyu71K3FGDNvZUCl0-102" target="y_ZNyu71K3FGDNvZUCl0-137">
          <mxGeometry relative="1" as="geometry">
            <mxPoint x="490" y="840" as="sourcePoint" />
            <mxPoint x="490" y="900" as="targetPoint" />
          </mxGeometry>
        </mxCell>
        <mxCell id="y_ZNyu71K3FGDNvZUCl0-139" value="If service&lt;br&gt;manager" style="edgeLabel;resizable=0;html=1;align=center;verticalAlign=middle;" connectable="0" vertex="1" parent="y_ZNyu71K3FGDNvZUCl0-138">
          <mxGeometry relative="1" as="geometry" />
        </mxCell>
      </root>
    </mxGraphModel>
  </diagram>
</mxfile>
